<svg height="512" viewBox="0 0 24 24" width="512" xmlns="http://www.w3.org/2000/svg"><g id="Flat"><path d="m15.31 2h-6.62a2 2 0 0 0 -1.42.59l-4.68 4.68a2 2 0 0 0 -.59 1.42v6.62a2 2 0 0 0 .59 1.42l4.68 4.68a2 2 0 0 0 1.42.59h6.62a2 2 0 0 0 1.42-.59l4.68-4.68a2 2 0 0 0 .59-1.42v-6.62a2 2 0 0 0 -.59-1.42l-4.68-4.68a2 2 0 0 0 -1.42-.59z" fill="#e63946"/><path d="m12.75 13.25v-7a.75.75 0 0 0 -1.5 0v7a.75.75 0 0 0 1.5 0zm-.75 5.25a1.25 1.25 0 1 1 1.25-1.25 1.25 1.25 0 0 1 -1.25 1.25z" fill="#edebea"/></g></svg>